<?xml version="1.0" standalone="no"?>
<!DOCTYPE svg PUBLIC "-//W3C//DTD SVG 20010904//EN"
 "http://www.w3.org/TR/2001/REC-SVG-20010904/DTD/svg10.dtd">
<svg version="1.0" xmlns="http://www.w3.org/2000/svg"
 width="690.000000pt" height="571.000000pt" viewBox="0 0 690.000000 571.000000"
 preserveAspectRatio="xMidYMid meet">
<g transform="translate(0.000000,571.000000) scale(0.100000,-0.100000)"
fill="#000000" stroke="none">
<path d="M2010 4788 c-92 -26 -138 -105 -103 -176 22 -45 67 -76 138 -97 60
-17 73 -29 55 -50 -16 -19 -67 -19 -100 0 -48 28 -100 14 -100 -26 0 -45 126
-104 192 -90 104 24 157 117 113 201 -19 37 -42 50 -125 70 -47 12 -66 21 -68
34 -8 37 47 47 104 20 33 -16 35 -16 54 7 46 55 35 81 -43 104 -57 17 -68 17
-117 3z"/>
<path d="M2300 4766 c-24 -26 -24 -31 -24 -189 -1 -136 2 -167 17 -194 31 -59
76 -37 84 40 l5 43 58 12 c70 15 117 45 141 92 36 67 19 136 -47 186 -31 24
-47 28 -123 32 -83 4 -87 3 -111 -22z"/>
<path d="M2640 4769 c-8 -14 -11 -78 -8 -189 3 -162 4 -169 27 -194 23 -25 30
-26 122 -26 108 0 129 10 129 59 0 43 -20 53 -97 49 l-68 -3 -7 140 c-4 77
-12 150 -18 163 -13 30 -65 31 -80 1z"/>
<path d="M3109 4769 c-14 -14 -19 -30 -17 -52 3 -28 8 -33 41 -41 l37 -10 0
-131 c0 -152 9 -175 66 -175 48 0 54 22 54 192 0 139 0 140 22 135 35 -10 58
9 58 49 0 45 -23 54 -146 54 -82 0 -97 -3 -115 -21z"/>
<path d="M2957 4762 c-31 -34 -18 -362 14 -383 25 -16 69 -11 69 9 4 138 -3
348 -12 367 -13 30 -48 33 -71 7z"/>
<path d="M3416 3958 c-7 -407 -1 -1133 10 -1161 4 -13 -7 -14 -78 -11 -46 2
-139 6 -208 8 -75 3 -157 13 -205 25 -159 39 -511 79 -544 62 -48 -26 -34
-107 36 -205 163 -226 424 -451 573 -492 30 -8 84 -26 120 -38 68 -24 173 -45
250 -49 l45 -2 5 -900 c4 -683 8 -905 17 -920 12 -19 12 -19 13 6 0 15 7 32
15 39 9 7 13 20 10 28 -3 9 0 12 9 9 10 -4 12 0 9 14 -4 15 0 19 21 19 18 0
26 -5 27 -17 0 -13 3 -12 10 5 5 15 8 345 6 840 -2 449 -2 824 0 833 3 12 21
18 66 22 267 25 646 211 840 411 43 45 111 125 153 178 107 140 126 193 78
224 -24 16 -37 16 -217 -5 -334 -37 -369 -42 -492 -66 -134 -26 -421 -53 -432
-40 -5 4 -2 10 5 12 6 3 12 20 12 39 0 21 -4 33 -10 29 -14 -9 -13 224 2 397
6 76 15 138 20 138 15 0 9 189 -8 221 -13 26 -15 68 -12 275 2 177 6 246 16
256 14 14 17 108 3 108 -5 0 -12 14 -16 30 -7 34 -8 34 -33 19 -25 -16 -74 1
-88 29 -6 13 -13 25 -16 27 -3 3 -8 -176 -12 -397z m1002 -1209 c5 -26 -111
-190 -184 -260 -97 -92 -204 -148 -412 -215 -78 -25 -233 -49 -257 -40 -12 4
-15 36 -15 186 0 99 3 180 6 180 3 0 67 13 142 30 75 16 166 34 202 40 91 16
344 68 410 85 67 17 104 15 108 -6z m-1696 -18 c257 -82 418 -112 601 -114
l107 0 0 -185 0 -185 -54 6 c-81 8 -333 83 -406 121 -151 77 -266 182 -341
311 -50 86 -44 89 93 46z"/>
<path d="M2410 4011 c-30 -10 -75 -28 -100 -41 -67 -34 -162 -136 -201 -216
-31 -62 -34 -78 -37 -174 -3 -87 0 -116 17 -168 69 -203 246 -332 456 -332
127 0 235 43 342 135 50 42 106 149 124 232 23 111 -1 256 -58 358 -95 171
-351 268 -543 206z m283 -145 c61 -30 134 -102 168 -167 20 -37 24 -59 24
-139 0 -84 -3 -102 -28 -153 -16 -33 -50 -79 -75 -103 -54 -51 -172 -104 -229
-104 -131 0 -270 97 -331 229 -22 48 -24 63 -19 135 3 47 14 101 26 128 39 92
136 172 238 198 66 16 166 6 226 -24z"/>
<path d="M4292 4014 c-182 -49 -314 -185 -351 -362 -41 -196 34 -377 204 -491
160 -106 324 -116 488 -28 111 59 184 149 227 280 20 58 22 81 17 172 -4 94
-9 113 -41 180 -96 203 -326 308 -544 249z m267 -142 c69 -34 130 -94 161
-157 22 -43 25 -64 25 -150 0 -89 -3 -106 -28 -156 -67 -137 -231 -228 -355
-198 -124 30 -235 119 -272 217 -31 82 -25 206 14 285 80 164 293 238 455 159z"/>
<path d="M2110 2583 c-56 -10 -80 -72 -42 -106 32 -29 313 -17 333 14 5 8 6
27 3 42 -3 16 -1 34 6 42 11 13 -6 15 -131 14 -79 -1 -155 -4 -169 -6z"/>
<path d="M2066 2089 c-31 -24 -35 -68 -7 -93 16 -15 65 -17 510 -19 l493 -2
24 28 c30 35 30 58 1 85 -23 22 -24 22 -509 22 -476 0 -486 0 -512 -21z"/>
<path d="M4369 1721 c-18 -15 -23 -29 -24 -64 0 -46 0 -46 -40 -53 -52 -8 -84
-25 -124 -66 -130 -130 -76 -318 109 -378 l70 -23 0 -88 c0 -83 -1 -89 -21
-89 -11 0 -51 18 -88 40 -37 22 -72 40 -78 40 -19 0 -73 -70 -73 -95 0 -13 8
-31 17 -41 32 -31 136 -74 181 -74 l43 0 -2 -56 c-2 -49 1 -60 20 -75 51 -41
101 -9 108 68 l5 51 46 7 c76 11 147 49 181 95 64 89 67 167 7 248 -39 54 -75
75 -170 101 l-61 16 -3 88 c-2 70 0 88 12 93 8 3 49 -11 90 -32 l75 -38 36 34
c19 19 35 44 35 56 0 43 -106 108 -197 121 -42 6 -43 6 -43 45 0 28 -7 46 -25
63 -29 30 -55 32 -86 6z m-3 -338 c-4 -48 -9 -89 -10 -91 -2 -1 -24 6 -49 17
-52 22 -68 55 -48 97 12 27 66 64 95 64 17 0 18 -6 12 -87z m188 -284 c78 -46
52 -107 -56 -134 l-28 -7 0 65 c0 36 3 72 6 81 8 22 36 20 78 -5z"/>
<path d="M2082 1600 c-32 -13 -46 -55 -29 -88 l12 -27 185 -6 c102 -4 341 -7
531 -8 336 -1 347 0 373 20 32 25 35 70 6 99 -20 20 -33 20 -537 19 -286 0
-528 -4 -541 -9z"/>
<path d="M2078 1135 c-37 -21 -45 -51 -21 -84 l20 -26 279 -8 c153 -4 393 -6
532 -5 l254 3 24 28 c28 33 25 61 -8 90 -19 16 -59 17 -537 17 -432 -1 -520
-3 -543 -15z"/>
</g>
</svg>
